<svg width="27" height="27" viewBox="0 0 27 27" fill="none" xmlns="http://www.w3.org/2000/svg">
<path d="M13.5 25.3125C6.98625 25.3125 1.6875 20.0137 1.6875 13.5C1.6875 6.98625 6.98625 1.6875 13.5 1.6875C20.0137 1.6875 25.3125 6.98625 25.3125 13.5C25.3125 20.0137 20.0137 25.3125 13.5 25.3125ZM13.5 3.375C7.91438 3.375 3.375 7.91438 3.375 13.5C3.375 19.0856 7.91438 23.625 13.5 23.625C19.0856 23.625 23.625 19.0856 23.625 13.5C23.625 7.91438 19.0856 3.375 13.5 3.375Z" fill="black"/>
<path d="M13.5 19.4062C13.0275 19.4062 12.6562 19.035 12.6562 18.5625V8.4375C12.6562 7.965 13.0275 7.59375 13.5 7.59375C13.9725 7.59375 14.3438 7.965 14.3438 8.4375V18.5625C14.3438 19.035 13.9725 19.4062 13.5 19.4062Z" fill="black"/>
<path d="M18.5625 14.3438H8.4375C7.965 14.3438 7.59375 13.9725 7.59375 13.5C7.59375 13.0275 7.965 12.6562 8.4375 12.6562H18.5625C19.035 12.6562 19.4062 13.0275 19.4062 13.5C19.4062 13.9725 19.035 14.3438 18.5625 14.3438Z" fill="black"/>
</svg>
