<svg width="30" height="30" viewBox="0 0 30 30" fill="none" xmlns="http://www.w3.org/2000/svg">
<path d="M7.5 17.9813H12.115V11.635C12.115 11.3492 12.2121 11.1096 12.4063 10.9162C12.5996 10.7221 12.8392 10.625 13.125 10.625H16.875C17.1608 10.625 17.4008 10.7221 17.595 10.9162C17.7883 11.1096 17.885 11.3492 17.885 11.635V17.9813H22.5V7.11625C22.5 6.98792 22.4721 6.87125 22.4163 6.76625C22.3604 6.66125 22.2842 6.56958 22.1875 6.49125L15.4575 1.41875C15.3292 1.30708 15.1767 1.25125 15 1.25125C14.8233 1.25125 14.6713 1.30708 14.5438 1.41875L7.8125 6.49125C7.71667 6.57125 7.64042 6.66292 7.58375 6.76625C7.52708 6.86958 7.49917 6.98625 7.5 7.11625V17.9813ZM6.25 17.9813V7.11625C6.25 6.79625 6.32167 6.49333 6.465 6.2075C6.60833 5.92167 6.80583 5.68625 7.0575 5.50125L13.7888 0.403751C14.1413 0.134584 14.5437 0 14.9962 0C15.4487 0 15.8537 0.134584 16.2112 0.403751L22.9425 5.5C23.195 5.685 23.3925 5.92083 23.535 6.2075C23.6783 6.49333 23.75 6.79625 23.75 7.11625V17.9813C23.75 18.3163 23.6254 18.6083 23.3763 18.8575C23.1271 19.1067 22.835 19.2313 22.5 19.2313H17.645C17.3583 19.2313 17.1183 19.1346 16.925 18.9412C16.7317 18.7471 16.635 18.5071 16.635 18.2212V11.8763H13.365V18.2212C13.365 18.5079 13.2683 18.7479 13.075 18.9412C12.8817 19.1346 12.6421 19.2313 12.3563 19.2313H7.5C7.165 19.2313 6.87292 19.1067 6.62375 18.8575C6.37458 18.6083 6.25 18.3163 6.25 17.9813Z" fill="black"/>
</svg>
