<svg width="19" height="20" viewBox="0 0 19 20" fill="none" xmlns="http://www.w3.org/2000/svg">
<path d="M3.50602 10.2239H1.69802C1.11902 10.2239 0.650024 10.6939 0.650024 11.2719V18.1019C0.650024 18.6799 1.12002 19.1499 1.69802 19.1499H3.50702C4.08702 19.1499 4.55602 18.6799 4.55602 18.1009V11.2719C4.55576 10.9938 4.44516 10.7271 4.24849 10.5304C4.05182 10.3338 3.78516 10.2232 3.50702 10.2229M10.201 0.649902H8.39302C7.81302 0.649902 7.34402 1.1199 7.34402 1.6989V18.0999C7.34402 18.6799 7.81402 19.1489 8.39402 19.1489H10.201C10.781 19.1489 11.25 18.6789 11.25 18.0999V1.6999C11.25 1.1199 10.78 0.650902 10.2 0.650902M16.896 5.8269H15.087C14.507 5.8269 14.038 6.2969 14.038 6.8769V18.0999C14.038 18.6799 14.508 19.1489 15.087 19.1489H16.895C17.1732 19.1486 17.4398 19.038 17.6365 18.8414C17.8332 18.6447 17.9438 18.378 17.944 18.0999V6.8759C17.944 6.2959 17.474 5.8269 16.894 5.8269" stroke="#00897B" stroke-width="1.3" stroke-linecap="round" stroke-linejoin="round"/>
</svg>
